<svg xmlns="http://www.w3.org/2000/svg" version="1.1" xmlns:xlink="http://www.w3.org/1999/xlink" xmlns:svgjs="http://svgjs.dev/svgjs" width="1000" height="623" viewBox="0 0 1000 623"><g transform="matrix(1,0,0,1,-0.6060606060605664,0.2522267206477409)"><svg viewBox="0 0 396 247" data-background-color="#ffffff" preserveAspectRatio="xMidYMid meet" height="623" width="1000" xmlns="http://www.w3.org/2000/svg" xmlns:xlink="http://www.w3.org/1999/xlink"><g id="tight-bounds" transform="matrix(1,0,0,1,0.2400000000000091,-0.09999999999999432)"><svg viewBox="0 0 395.52 247.2" height="247.2" width="395.52"><g><svg></svg></g><g><svg viewBox="0 0 395.52 247.2" height="247.2" width="395.52"><g transform="matrix(1,0,0,1,75.54432,65.82294002137513)"><svg viewBox="0 0 244.43135999999998 115.55411995724972" height="115.55411995724972" width="244.43135999999998"><g><svg viewBox="0 0 244.43135999999998 115.55411995724972" height="115.55411995724972" width="244.43135999999998"><g><svg viewBox="0 0 244.43135999999998 115.55411995724972" height="115.55411995724972" width="244.43135999999998"><g id="textblocktransform"><svg viewBox="0 0 244.43135999999998 115.55411995724972" height="115.55411995724972" width="244.43135999999998" id="textblock"><g><svg viewBox="0 0 244.43135999999998 115.55411995724972" height="115.55411995724972" width="244.43135999999998"><g transform="matrix(1,0,0,1,0,0)"><svg width="244.43135999999998" viewBox="0.34 -31.96 68.53 32.400000000000006" height="115.55411995724972" data-palette-color="#ff5858"><path d="M15.94-16.04Q16.14-15.84 16.55-15.84 16.97-15.84 17.26-16.02L17.26-16.02Q16.63-19.73 16.41-20.41L16.41-20.41Q16.14-21.12 15.6-21.12L15.6-21.12Q15.36-21.12 15.01-20.97L15.01-20.97 15.94-16.04ZM11.11-8.72L11.11-8.72Q10.86-8.37 10.86-8.08L10.86-8.08Q10.86-7.37 12.19-6.9 13.53-6.42 15.43-6.3L15.43-6.3Q15.75-2.78 16.11-2.29L16.11-2.29Q15.65-1.39 13.55-0.48 11.45 0.44 8.81 0.44L8.81 0.44Q5.32 0.44 2.83-1.06 0.34-2.56 0.34-4.93L0.34-4.93Q0.34-5.57 0.46-6.05L0.46-6.05 5.66-29.3Q7.62-30.54 10.33-31.25 13.04-31.96 15.97-31.96L15.97-31.96Q20.17-31.96 23.14-30.54L23.14-30.54Q26.54-28.93 27.27-25.88L27.27-25.88 32.84-2.86Q30.3 0.44 24.56 0.44L24.56 0.44Q21.78 0.44 19.85-0.56 17.92-1.56 17.6-3.42L17.6-3.42 17.07-6.4Q18.53-6.42 19.9-6.96 21.26-7.5 21.26-8.08L21.26-8.08Q21.26-8.47 20.95-8.72L20.95-8.72Q20.02-8.06 18.68-7.71 17.33-7.37 16.19-7.37L16.19-7.37Q12.89-7.37 11.11-8.72ZM61.06 0.44L61.06 0.44Q57.71 0.44 55.81-0.66L55.81-0.66Q53.76-1.81 53.59-3.91L53.59-3.91 53.37-6.2Q55.61-6.74 57.15-8.98L57.15-8.98Q57.57-9.62 57.57-10.08L57.57-10.08Q57.57-10.72 56.93-10.72L56.93-10.72 56.86-10.72Q56.83-10.69 56.76-10.69L56.76-10.69Q55.05-7.1 51.22-7.1L51.22-7.1Q49.27-7.1 47.89-7.96 46.51-8.81 45.36-10.91L45.36-10.91 45.21-10.91Q44.55-10.91 44.55-10.35L44.55-10.35Q44.55-9.96 44.85-9.47L44.85-9.47Q45.82-7.84 47.29-6.91L47.29-6.91Q48.44-6.13 49.7-5.98L49.7-5.98 49.51-1.37Q48.04-0.42 46.42 0.01 44.8 0.44 41.81 0.44 38.82 0.44 36.47-0.73L36.47-0.73Q33.59-2.17 33.59-4.74L33.59-4.74Q33.59-7.93 34.86-20.53L34.86-20.53Q35.54-27.1 35.96-29.71L35.96-29.71Q38.47-31.96 43.38-31.96L43.38-31.96Q46.95-31.96 49.29-30.64L49.29-30.64 50.63-26.15 49.78-22.56Q49.68-22.19 49.68-21.85L49.68-21.85Q49.68-21 50.66-20.97L50.66-20.97 52.98-30.62Q53.98-31.15 55.59-31.56 57.2-31.96 59.1-31.96L59.1-31.96Q62.67-31.96 64.39-30.75 66.11-29.54 66.43-26.68L66.43-26.68Q66.5-26.15 66.65-24.9L66.65-24.9Q68.87-5.81 68.87-2.42L68.87-2.42Q66.16 0.44 61.06 0.44Z" opacity="1" transform="matrix(1,0,0,1,0,0)" fill="#ff5858" class="wordmark-text-0" data-fill-palette-color="primary" id="text-0"></path></svg></g></svg></g></svg></g></svg></g></svg></g></svg></g><g><path d="M0 123.6c0-68.262 55.338-123.6 123.6-123.6 41.656 0 78.499 20.607 100.891 52.183l-6.46 0c-21.616-28.538-55.871-46.973-94.431-46.973-65.385 0-118.39 53.005-118.39 118.39 0 65.385 53.005 118.39 118.39 118.39 38.56 0 72.815-18.435 94.431-46.973h6.46c-22.392 31.576-59.235 52.183-100.891 52.183-68.262 0-123.6-55.338-123.6-123.6z" fill="#ff5858" stroke="transparent" data-fill-palette-color="tertiary"></path></g></svg></g><defs></defs></svg><rect width="395.52" height="247.2" fill="none" stroke="none" visibility="hidden"></rect></g></svg></g></svg>